%TF.GenerationSoftware,KiCad,Pcbnew,9.0.3*%
%TF.CreationDate,2026-03-04T21:44:27+01:00*%
%TF.ProjectId,LSE2_BruLimon,4c534532-5f42-4727-954c-696d6f6e2e6b,rev?*%
%TF.SameCoordinates,Original*%
%TF.FileFunction,Paste,Bot*%
%TF.FilePolarity,Positive*%
%FSLAX46Y46*%
G04 Gerber Fmt 4.6, Leading zero omitted, Abs format (unit mm)*
G04 Created by KiCad (PCBNEW 9.0.3) date 2026-03-04 21:44:27*
%MOMM*%
%LPD*%
G01*
G04 APERTURE LIST*
G04 Aperture macros list*
%AMRoundRect*
0 Rectangle with rounded corners*
0 $1 Rounding radius*
0 $2 $3 $4 $5 $6 $7 $8 $9 X,Y pos of 4 corners*
0 Add a 4 corners polygon primitive as box body*
4,1,4,$2,$3,$4,$5,$6,$7,$8,$9,$2,$3,0*
0 Add four circle primitives for the rounded corners*
1,1,$1+$1,$2,$3*
1,1,$1+$1,$4,$5*
1,1,$1+$1,$6,$7*
1,1,$1+$1,$8,$9*
0 Add four rect primitives between the rounded corners*
20,1,$1+$1,$2,$3,$4,$5,0*
20,1,$1+$1,$4,$5,$6,$7,0*
20,1,$1+$1,$6,$7,$8,$9,0*
20,1,$1+$1,$8,$9,$2,$3,0*%
G04 Aperture macros list end*
%ADD10R,0.800000X1.750000*%
%ADD11R,0.700000X1.750000*%
%ADD12RoundRect,0.250000X-0.625000X0.312500X-0.625000X-0.312500X0.625000X-0.312500X0.625000X0.312500X0*%
%ADD13RoundRect,0.250000X0.625000X-0.312500X0.625000X0.312500X-0.625000X0.312500X-0.625000X-0.312500X0*%
%ADD14RoundRect,0.250000X-0.650000X0.325000X-0.650000X-0.325000X0.650000X-0.325000X0.650000X0.325000X0*%
%ADD15RoundRect,0.250000X-0.312500X-0.625000X0.312500X-0.625000X0.312500X0.625000X-0.312500X0.625000X0*%
%ADD16RoundRect,0.250000X0.650000X-0.325000X0.650000X0.325000X-0.650000X0.325000X-0.650000X-0.325000X0*%
%ADD17RoundRect,0.250000X-0.325000X-0.650000X0.325000X-0.650000X0.325000X0.650000X-0.325000X0.650000X0*%
G04 APERTURE END LIST*
D10*
%TO.C,IC2*%
X145060000Y-69800000D03*
D11*
X146380000Y-69800000D03*
X147650000Y-69800000D03*
X148920000Y-69800000D03*
X150190000Y-69800000D03*
X151460000Y-69800000D03*
X152730000Y-69800000D03*
D10*
X154050000Y-69800000D03*
X154050000Y-75450000D03*
D11*
X152730000Y-75450000D03*
X151460000Y-75450000D03*
X150190000Y-75450000D03*
X148920000Y-75450000D03*
X147650000Y-75450000D03*
X146380000Y-75450000D03*
D10*
X145060000Y-75450000D03*
%TD*%
%TO.C,IC1*%
X130400000Y-69750000D03*
D11*
X131720000Y-69750000D03*
X132990000Y-69750000D03*
X134260000Y-69750000D03*
X135530000Y-69750000D03*
X136800000Y-69750000D03*
X138070000Y-69750000D03*
D10*
X139390000Y-69750000D03*
X139390000Y-75400000D03*
D11*
X138070000Y-75400000D03*
X136800000Y-75400000D03*
X135530000Y-75400000D03*
X134260000Y-75400000D03*
X132990000Y-75400000D03*
X131720000Y-75400000D03*
D10*
X130400000Y-75400000D03*
%TD*%
D12*
%TO.C,R6*%
X130925000Y-82091250D03*
X130925000Y-85016250D03*
%TD*%
%TO.C,R8*%
X130162500Y-97291250D03*
X130162500Y-100216250D03*
%TD*%
D13*
%TO.C,R16*%
X143662500Y-100216250D03*
X143662500Y-97291250D03*
%TD*%
D14*
%TO.C,C6*%
X152600000Y-94525000D03*
X152600000Y-97475000D03*
%TD*%
D15*
%TO.C,R4*%
X184637500Y-95600000D03*
X187562500Y-95600000D03*
%TD*%
D12*
%TO.C,R9*%
X133262500Y-97291250D03*
X133262500Y-100216250D03*
%TD*%
D13*
%TO.C,R17*%
X149225000Y-100216250D03*
X149225000Y-97291250D03*
%TD*%
%TO.C,R14*%
X146462500Y-100216250D03*
X146462500Y-97291250D03*
%TD*%
D12*
%TO.C,R11*%
X138425000Y-80591250D03*
X138425000Y-83516250D03*
%TD*%
D16*
%TO.C,C3*%
X154500000Y-103675000D03*
X154500000Y-100725000D03*
%TD*%
D12*
%TO.C,R7*%
X133525000Y-81991250D03*
X133525000Y-84916250D03*
%TD*%
%TO.C,R10*%
X136262500Y-97291250D03*
X136262500Y-100216250D03*
%TD*%
D15*
%TO.C,R5*%
X183337500Y-98100000D03*
X186262500Y-98100000D03*
%TD*%
D13*
%TO.C,R15*%
X140925000Y-100216250D03*
X140925000Y-97291250D03*
%TD*%
%TO.C,R19*%
X149000000Y-84616250D03*
X149000000Y-81691250D03*
%TD*%
D15*
%TO.C,R3*%
X187237500Y-93200000D03*
X190162500Y-93200000D03*
%TD*%
D17*
%TO.C,C1*%
X160950000Y-88000000D03*
X163900000Y-88000000D03*
%TD*%
M02*
