%TF.GenerationSoftware,KiCad,Pcbnew,9.0.3*%
%TF.CreationDate,2026-03-04T21:44:27+01:00*%
%TF.ProjectId,LSE2_BruLimon,4c534532-5f42-4727-954c-696d6f6e2e6b,rev?*%
%TF.SameCoordinates,Original*%
%TF.FileFunction,Legend,Bot*%
%TF.FilePolarity,Positive*%
%FSLAX46Y46*%
G04 Gerber Fmt 4.6, Leading zero omitted, Abs format (unit mm)*
G04 Created by KiCad (PCBNEW 9.0.3) date 2026-03-04 21:44:27*
%MOMM*%
%LPD*%
G01*
G04 APERTURE LIST*
%ADD10C,0.254000*%
%ADD11C,0.150000*%
%ADD12C,0.200000*%
%ADD13C,0.100000*%
%ADD14C,0.120000*%
G04 APERTURE END LIST*
D10*
X150794762Y-73199318D02*
X150794762Y-71929318D01*
X149464285Y-73078365D02*
X149524761Y-73138842D01*
X149524761Y-73138842D02*
X149706190Y-73199318D01*
X149706190Y-73199318D02*
X149827142Y-73199318D01*
X149827142Y-73199318D02*
X150008571Y-73138842D01*
X150008571Y-73138842D02*
X150129523Y-73017889D01*
X150129523Y-73017889D02*
X150190000Y-72896937D01*
X150190000Y-72896937D02*
X150250476Y-72655032D01*
X150250476Y-72655032D02*
X150250476Y-72473603D01*
X150250476Y-72473603D02*
X150190000Y-72231699D01*
X150190000Y-72231699D02*
X150129523Y-72110746D01*
X150129523Y-72110746D02*
X150008571Y-71989794D01*
X150008571Y-71989794D02*
X149827142Y-71929318D01*
X149827142Y-71929318D02*
X149706190Y-71929318D01*
X149706190Y-71929318D02*
X149524761Y-71989794D01*
X149524761Y-71989794D02*
X149464285Y-72050270D01*
X148980476Y-72050270D02*
X148920000Y-71989794D01*
X148920000Y-71989794D02*
X148799047Y-71929318D01*
X148799047Y-71929318D02*
X148496666Y-71929318D01*
X148496666Y-71929318D02*
X148375714Y-71989794D01*
X148375714Y-71989794D02*
X148315238Y-72050270D01*
X148315238Y-72050270D02*
X148254761Y-72171222D01*
X148254761Y-72171222D02*
X148254761Y-72292175D01*
X148254761Y-72292175D02*
X148315238Y-72473603D01*
X148315238Y-72473603D02*
X149040952Y-73199318D01*
X149040952Y-73199318D02*
X148254761Y-73199318D01*
X136134762Y-73149318D02*
X136134762Y-71879318D01*
X134804285Y-73028365D02*
X134864761Y-73088842D01*
X134864761Y-73088842D02*
X135046190Y-73149318D01*
X135046190Y-73149318D02*
X135167142Y-73149318D01*
X135167142Y-73149318D02*
X135348571Y-73088842D01*
X135348571Y-73088842D02*
X135469523Y-72967889D01*
X135469523Y-72967889D02*
X135530000Y-72846937D01*
X135530000Y-72846937D02*
X135590476Y-72605032D01*
X135590476Y-72605032D02*
X135590476Y-72423603D01*
X135590476Y-72423603D02*
X135530000Y-72181699D01*
X135530000Y-72181699D02*
X135469523Y-72060746D01*
X135469523Y-72060746D02*
X135348571Y-71939794D01*
X135348571Y-71939794D02*
X135167142Y-71879318D01*
X135167142Y-71879318D02*
X135046190Y-71879318D01*
X135046190Y-71879318D02*
X134864761Y-71939794D01*
X134864761Y-71939794D02*
X134804285Y-72000270D01*
X133594761Y-73149318D02*
X134320476Y-73149318D01*
X133957619Y-73149318D02*
X133957619Y-71879318D01*
X133957619Y-71879318D02*
X134078571Y-72060746D01*
X134078571Y-72060746D02*
X134199523Y-72181699D01*
X134199523Y-72181699D02*
X134320476Y-72242175D01*
D11*
X130991666Y-81008569D02*
X131324999Y-80532378D01*
X131563094Y-81008569D02*
X131563094Y-80008569D01*
X131563094Y-80008569D02*
X131182142Y-80008569D01*
X131182142Y-80008569D02*
X131086904Y-80056188D01*
X131086904Y-80056188D02*
X131039285Y-80103807D01*
X131039285Y-80103807D02*
X130991666Y-80199045D01*
X130991666Y-80199045D02*
X130991666Y-80341902D01*
X130991666Y-80341902D02*
X131039285Y-80437140D01*
X131039285Y-80437140D02*
X131086904Y-80484759D01*
X131086904Y-80484759D02*
X131182142Y-80532378D01*
X131182142Y-80532378D02*
X131563094Y-80532378D01*
X130134523Y-80008569D02*
X130324999Y-80008569D01*
X130324999Y-80008569D02*
X130420237Y-80056188D01*
X130420237Y-80056188D02*
X130467856Y-80103807D01*
X130467856Y-80103807D02*
X130563094Y-80246664D01*
X130563094Y-80246664D02*
X130610713Y-80437140D01*
X130610713Y-80437140D02*
X130610713Y-80818092D01*
X130610713Y-80818092D02*
X130563094Y-80913330D01*
X130563094Y-80913330D02*
X130515475Y-80960950D01*
X130515475Y-80960950D02*
X130420237Y-81008569D01*
X130420237Y-81008569D02*
X130229761Y-81008569D01*
X130229761Y-81008569D02*
X130134523Y-80960950D01*
X130134523Y-80960950D02*
X130086904Y-80913330D01*
X130086904Y-80913330D02*
X130039285Y-80818092D01*
X130039285Y-80818092D02*
X130039285Y-80579997D01*
X130039285Y-80579997D02*
X130086904Y-80484759D01*
X130086904Y-80484759D02*
X130134523Y-80437140D01*
X130134523Y-80437140D02*
X130229761Y-80389521D01*
X130229761Y-80389521D02*
X130420237Y-80389521D01*
X130420237Y-80389521D02*
X130515475Y-80437140D01*
X130515475Y-80437140D02*
X130563094Y-80484759D01*
X130563094Y-80484759D02*
X130610713Y-80579997D01*
X130266666Y-95954819D02*
X130599999Y-95478628D01*
X130838094Y-95954819D02*
X130838094Y-94954819D01*
X130838094Y-94954819D02*
X130457142Y-94954819D01*
X130457142Y-94954819D02*
X130361904Y-95002438D01*
X130361904Y-95002438D02*
X130314285Y-95050057D01*
X130314285Y-95050057D02*
X130266666Y-95145295D01*
X130266666Y-95145295D02*
X130266666Y-95288152D01*
X130266666Y-95288152D02*
X130314285Y-95383390D01*
X130314285Y-95383390D02*
X130361904Y-95431009D01*
X130361904Y-95431009D02*
X130457142Y-95478628D01*
X130457142Y-95478628D02*
X130838094Y-95478628D01*
X129695237Y-95383390D02*
X129790475Y-95335771D01*
X129790475Y-95335771D02*
X129838094Y-95288152D01*
X129838094Y-95288152D02*
X129885713Y-95192914D01*
X129885713Y-95192914D02*
X129885713Y-95145295D01*
X129885713Y-95145295D02*
X129838094Y-95050057D01*
X129838094Y-95050057D02*
X129790475Y-95002438D01*
X129790475Y-95002438D02*
X129695237Y-94954819D01*
X129695237Y-94954819D02*
X129504761Y-94954819D01*
X129504761Y-94954819D02*
X129409523Y-95002438D01*
X129409523Y-95002438D02*
X129361904Y-95050057D01*
X129361904Y-95050057D02*
X129314285Y-95145295D01*
X129314285Y-95145295D02*
X129314285Y-95192914D01*
X129314285Y-95192914D02*
X129361904Y-95288152D01*
X129361904Y-95288152D02*
X129409523Y-95335771D01*
X129409523Y-95335771D02*
X129504761Y-95383390D01*
X129504761Y-95383390D02*
X129695237Y-95383390D01*
X129695237Y-95383390D02*
X129790475Y-95431009D01*
X129790475Y-95431009D02*
X129838094Y-95478628D01*
X129838094Y-95478628D02*
X129885713Y-95573866D01*
X129885713Y-95573866D02*
X129885713Y-95764342D01*
X129885713Y-95764342D02*
X129838094Y-95859580D01*
X129838094Y-95859580D02*
X129790475Y-95907200D01*
X129790475Y-95907200D02*
X129695237Y-95954819D01*
X129695237Y-95954819D02*
X129504761Y-95954819D01*
X129504761Y-95954819D02*
X129409523Y-95907200D01*
X129409523Y-95907200D02*
X129361904Y-95859580D01*
X129361904Y-95859580D02*
X129314285Y-95764342D01*
X129314285Y-95764342D02*
X129314285Y-95573866D01*
X129314285Y-95573866D02*
X129361904Y-95478628D01*
X129361904Y-95478628D02*
X129409523Y-95431009D01*
X129409523Y-95431009D02*
X129504761Y-95383390D01*
X144117319Y-94410892D02*
X143641128Y-94077559D01*
X144117319Y-93839464D02*
X143117319Y-93839464D01*
X143117319Y-93839464D02*
X143117319Y-94220416D01*
X143117319Y-94220416D02*
X143164938Y-94315654D01*
X143164938Y-94315654D02*
X143212557Y-94363273D01*
X143212557Y-94363273D02*
X143307795Y-94410892D01*
X143307795Y-94410892D02*
X143450652Y-94410892D01*
X143450652Y-94410892D02*
X143545890Y-94363273D01*
X143545890Y-94363273D02*
X143593509Y-94315654D01*
X143593509Y-94315654D02*
X143641128Y-94220416D01*
X143641128Y-94220416D02*
X143641128Y-93839464D01*
X144117319Y-95363273D02*
X144117319Y-94791845D01*
X144117319Y-95077559D02*
X143117319Y-95077559D01*
X143117319Y-95077559D02*
X143260176Y-94982321D01*
X143260176Y-94982321D02*
X143355414Y-94887083D01*
X143355414Y-94887083D02*
X143403033Y-94791845D01*
X143117319Y-96220416D02*
X143117319Y-96029940D01*
X143117319Y-96029940D02*
X143164938Y-95934702D01*
X143164938Y-95934702D02*
X143212557Y-95887083D01*
X143212557Y-95887083D02*
X143355414Y-95791845D01*
X143355414Y-95791845D02*
X143545890Y-95744226D01*
X143545890Y-95744226D02*
X143926842Y-95744226D01*
X143926842Y-95744226D02*
X144022080Y-95791845D01*
X144022080Y-95791845D02*
X144069700Y-95839464D01*
X144069700Y-95839464D02*
X144117319Y-95934702D01*
X144117319Y-95934702D02*
X144117319Y-96125178D01*
X144117319Y-96125178D02*
X144069700Y-96220416D01*
X144069700Y-96220416D02*
X144022080Y-96268035D01*
X144022080Y-96268035D02*
X143926842Y-96315654D01*
X143926842Y-96315654D02*
X143688747Y-96315654D01*
X143688747Y-96315654D02*
X143593509Y-96268035D01*
X143593509Y-96268035D02*
X143545890Y-96220416D01*
X143545890Y-96220416D02*
X143498271Y-96125178D01*
X143498271Y-96125178D02*
X143498271Y-95934702D01*
X143498271Y-95934702D02*
X143545890Y-95839464D01*
X143545890Y-95839464D02*
X143593509Y-95791845D01*
X143593509Y-95791845D02*
X143688747Y-95744226D01*
X151109580Y-95833333D02*
X151157200Y-95785714D01*
X151157200Y-95785714D02*
X151204819Y-95642857D01*
X151204819Y-95642857D02*
X151204819Y-95547619D01*
X151204819Y-95547619D02*
X151157200Y-95404762D01*
X151157200Y-95404762D02*
X151061961Y-95309524D01*
X151061961Y-95309524D02*
X150966723Y-95261905D01*
X150966723Y-95261905D02*
X150776247Y-95214286D01*
X150776247Y-95214286D02*
X150633390Y-95214286D01*
X150633390Y-95214286D02*
X150442914Y-95261905D01*
X150442914Y-95261905D02*
X150347676Y-95309524D01*
X150347676Y-95309524D02*
X150252438Y-95404762D01*
X150252438Y-95404762D02*
X150204819Y-95547619D01*
X150204819Y-95547619D02*
X150204819Y-95642857D01*
X150204819Y-95642857D02*
X150252438Y-95785714D01*
X150252438Y-95785714D02*
X150300057Y-95833333D01*
X150204819Y-96690476D02*
X150204819Y-96500000D01*
X150204819Y-96500000D02*
X150252438Y-96404762D01*
X150252438Y-96404762D02*
X150300057Y-96357143D01*
X150300057Y-96357143D02*
X150442914Y-96261905D01*
X150442914Y-96261905D02*
X150633390Y-96214286D01*
X150633390Y-96214286D02*
X151014342Y-96214286D01*
X151014342Y-96214286D02*
X151109580Y-96261905D01*
X151109580Y-96261905D02*
X151157200Y-96309524D01*
X151157200Y-96309524D02*
X151204819Y-96404762D01*
X151204819Y-96404762D02*
X151204819Y-96595238D01*
X151204819Y-96595238D02*
X151157200Y-96690476D01*
X151157200Y-96690476D02*
X151109580Y-96738095D01*
X151109580Y-96738095D02*
X151014342Y-96785714D01*
X151014342Y-96785714D02*
X150776247Y-96785714D01*
X150776247Y-96785714D02*
X150681009Y-96738095D01*
X150681009Y-96738095D02*
X150633390Y-96690476D01*
X150633390Y-96690476D02*
X150585771Y-96595238D01*
X150585771Y-96595238D02*
X150585771Y-96404762D01*
X150585771Y-96404762D02*
X150633390Y-96309524D01*
X150633390Y-96309524D02*
X150681009Y-96261905D01*
X150681009Y-96261905D02*
X150776247Y-96214286D01*
X183454819Y-95433333D02*
X182978628Y-95100000D01*
X183454819Y-94861905D02*
X182454819Y-94861905D01*
X182454819Y-94861905D02*
X182454819Y-95242857D01*
X182454819Y-95242857D02*
X182502438Y-95338095D01*
X182502438Y-95338095D02*
X182550057Y-95385714D01*
X182550057Y-95385714D02*
X182645295Y-95433333D01*
X182645295Y-95433333D02*
X182788152Y-95433333D01*
X182788152Y-95433333D02*
X182883390Y-95385714D01*
X182883390Y-95385714D02*
X182931009Y-95338095D01*
X182931009Y-95338095D02*
X182978628Y-95242857D01*
X182978628Y-95242857D02*
X182978628Y-94861905D01*
X182788152Y-96290476D02*
X183454819Y-96290476D01*
X182407200Y-96052381D02*
X183121485Y-95814286D01*
X183121485Y-95814286D02*
X183121485Y-96433333D01*
X133491666Y-96208569D02*
X133824999Y-95732378D01*
X134063094Y-96208569D02*
X134063094Y-95208569D01*
X134063094Y-95208569D02*
X133682142Y-95208569D01*
X133682142Y-95208569D02*
X133586904Y-95256188D01*
X133586904Y-95256188D02*
X133539285Y-95303807D01*
X133539285Y-95303807D02*
X133491666Y-95399045D01*
X133491666Y-95399045D02*
X133491666Y-95541902D01*
X133491666Y-95541902D02*
X133539285Y-95637140D01*
X133539285Y-95637140D02*
X133586904Y-95684759D01*
X133586904Y-95684759D02*
X133682142Y-95732378D01*
X133682142Y-95732378D02*
X134063094Y-95732378D01*
X133015475Y-96208569D02*
X132824999Y-96208569D01*
X132824999Y-96208569D02*
X132729761Y-96160950D01*
X132729761Y-96160950D02*
X132682142Y-96113330D01*
X132682142Y-96113330D02*
X132586904Y-95970473D01*
X132586904Y-95970473D02*
X132539285Y-95779997D01*
X132539285Y-95779997D02*
X132539285Y-95399045D01*
X132539285Y-95399045D02*
X132586904Y-95303807D01*
X132586904Y-95303807D02*
X132634523Y-95256188D01*
X132634523Y-95256188D02*
X132729761Y-95208569D01*
X132729761Y-95208569D02*
X132920237Y-95208569D01*
X132920237Y-95208569D02*
X133015475Y-95256188D01*
X133015475Y-95256188D02*
X133063094Y-95303807D01*
X133063094Y-95303807D02*
X133110713Y-95399045D01*
X133110713Y-95399045D02*
X133110713Y-95637140D01*
X133110713Y-95637140D02*
X133063094Y-95732378D01*
X133063094Y-95732378D02*
X133015475Y-95779997D01*
X133015475Y-95779997D02*
X132920237Y-95827616D01*
X132920237Y-95827616D02*
X132729761Y-95827616D01*
X132729761Y-95827616D02*
X132634523Y-95779997D01*
X132634523Y-95779997D02*
X132586904Y-95732378D01*
X132586904Y-95732378D02*
X132539285Y-95637140D01*
X151509819Y-98110892D02*
X151033628Y-97777559D01*
X151509819Y-97539464D02*
X150509819Y-97539464D01*
X150509819Y-97539464D02*
X150509819Y-97920416D01*
X150509819Y-97920416D02*
X150557438Y-98015654D01*
X150557438Y-98015654D02*
X150605057Y-98063273D01*
X150605057Y-98063273D02*
X150700295Y-98110892D01*
X150700295Y-98110892D02*
X150843152Y-98110892D01*
X150843152Y-98110892D02*
X150938390Y-98063273D01*
X150938390Y-98063273D02*
X150986009Y-98015654D01*
X150986009Y-98015654D02*
X151033628Y-97920416D01*
X151033628Y-97920416D02*
X151033628Y-97539464D01*
X151509819Y-99063273D02*
X151509819Y-98491845D01*
X151509819Y-98777559D02*
X150509819Y-98777559D01*
X150509819Y-98777559D02*
X150652676Y-98682321D01*
X150652676Y-98682321D02*
X150747914Y-98587083D01*
X150747914Y-98587083D02*
X150795533Y-98491845D01*
X150509819Y-99396607D02*
X150509819Y-100063273D01*
X150509819Y-100063273D02*
X151509819Y-99634702D01*
X146979819Y-94510892D02*
X146503628Y-94177559D01*
X146979819Y-93939464D02*
X145979819Y-93939464D01*
X145979819Y-93939464D02*
X145979819Y-94320416D01*
X145979819Y-94320416D02*
X146027438Y-94415654D01*
X146027438Y-94415654D02*
X146075057Y-94463273D01*
X146075057Y-94463273D02*
X146170295Y-94510892D01*
X146170295Y-94510892D02*
X146313152Y-94510892D01*
X146313152Y-94510892D02*
X146408390Y-94463273D01*
X146408390Y-94463273D02*
X146456009Y-94415654D01*
X146456009Y-94415654D02*
X146503628Y-94320416D01*
X146503628Y-94320416D02*
X146503628Y-93939464D01*
X146979819Y-95463273D02*
X146979819Y-94891845D01*
X146979819Y-95177559D02*
X145979819Y-95177559D01*
X145979819Y-95177559D02*
X146122676Y-95082321D01*
X146122676Y-95082321D02*
X146217914Y-94987083D01*
X146217914Y-94987083D02*
X146265533Y-94891845D01*
X146313152Y-96320416D02*
X146979819Y-96320416D01*
X145932200Y-96082321D02*
X146646485Y-95844226D01*
X146646485Y-95844226D02*
X146646485Y-96463273D01*
X139167857Y-85608569D02*
X139501190Y-85132378D01*
X139739285Y-85608569D02*
X139739285Y-84608569D01*
X139739285Y-84608569D02*
X139358333Y-84608569D01*
X139358333Y-84608569D02*
X139263095Y-84656188D01*
X139263095Y-84656188D02*
X139215476Y-84703807D01*
X139215476Y-84703807D02*
X139167857Y-84799045D01*
X139167857Y-84799045D02*
X139167857Y-84941902D01*
X139167857Y-84941902D02*
X139215476Y-85037140D01*
X139215476Y-85037140D02*
X139263095Y-85084759D01*
X139263095Y-85084759D02*
X139358333Y-85132378D01*
X139358333Y-85132378D02*
X139739285Y-85132378D01*
X138215476Y-85608569D02*
X138786904Y-85608569D01*
X138501190Y-85608569D02*
X138501190Y-84608569D01*
X138501190Y-84608569D02*
X138596428Y-84751426D01*
X138596428Y-84751426D02*
X138691666Y-84846664D01*
X138691666Y-84846664D02*
X138786904Y-84894283D01*
X137263095Y-85608569D02*
X137834523Y-85608569D01*
X137548809Y-85608569D02*
X137548809Y-84608569D01*
X137548809Y-84608569D02*
X137644047Y-84751426D01*
X137644047Y-84751426D02*
X137739285Y-84846664D01*
X137739285Y-84846664D02*
X137834523Y-84894283D01*
X154666666Y-99359580D02*
X154714285Y-99407200D01*
X154714285Y-99407200D02*
X154857142Y-99454819D01*
X154857142Y-99454819D02*
X154952380Y-99454819D01*
X154952380Y-99454819D02*
X155095237Y-99407200D01*
X155095237Y-99407200D02*
X155190475Y-99311961D01*
X155190475Y-99311961D02*
X155238094Y-99216723D01*
X155238094Y-99216723D02*
X155285713Y-99026247D01*
X155285713Y-99026247D02*
X155285713Y-98883390D01*
X155285713Y-98883390D02*
X155238094Y-98692914D01*
X155238094Y-98692914D02*
X155190475Y-98597676D01*
X155190475Y-98597676D02*
X155095237Y-98502438D01*
X155095237Y-98502438D02*
X154952380Y-98454819D01*
X154952380Y-98454819D02*
X154857142Y-98454819D01*
X154857142Y-98454819D02*
X154714285Y-98502438D01*
X154714285Y-98502438D02*
X154666666Y-98550057D01*
X154333332Y-98454819D02*
X153714285Y-98454819D01*
X153714285Y-98454819D02*
X154047618Y-98835771D01*
X154047618Y-98835771D02*
X153904761Y-98835771D01*
X153904761Y-98835771D02*
X153809523Y-98883390D01*
X153809523Y-98883390D02*
X153761904Y-98931009D01*
X153761904Y-98931009D02*
X153714285Y-99026247D01*
X153714285Y-99026247D02*
X153714285Y-99264342D01*
X153714285Y-99264342D02*
X153761904Y-99359580D01*
X153761904Y-99359580D02*
X153809523Y-99407200D01*
X153809523Y-99407200D02*
X153904761Y-99454819D01*
X153904761Y-99454819D02*
X154190475Y-99454819D01*
X154190475Y-99454819D02*
X154285713Y-99407200D01*
X154285713Y-99407200D02*
X154333332Y-99359580D01*
X133591666Y-80908569D02*
X133924999Y-80432378D01*
X134163094Y-80908569D02*
X134163094Y-79908569D01*
X134163094Y-79908569D02*
X133782142Y-79908569D01*
X133782142Y-79908569D02*
X133686904Y-79956188D01*
X133686904Y-79956188D02*
X133639285Y-80003807D01*
X133639285Y-80003807D02*
X133591666Y-80099045D01*
X133591666Y-80099045D02*
X133591666Y-80241902D01*
X133591666Y-80241902D02*
X133639285Y-80337140D01*
X133639285Y-80337140D02*
X133686904Y-80384759D01*
X133686904Y-80384759D02*
X133782142Y-80432378D01*
X133782142Y-80432378D02*
X134163094Y-80432378D01*
X133258332Y-79908569D02*
X132591666Y-79908569D01*
X132591666Y-79908569D02*
X133020237Y-80908569D01*
X136979819Y-94410892D02*
X136503628Y-94077559D01*
X136979819Y-93839464D02*
X135979819Y-93839464D01*
X135979819Y-93839464D02*
X135979819Y-94220416D01*
X135979819Y-94220416D02*
X136027438Y-94315654D01*
X136027438Y-94315654D02*
X136075057Y-94363273D01*
X136075057Y-94363273D02*
X136170295Y-94410892D01*
X136170295Y-94410892D02*
X136313152Y-94410892D01*
X136313152Y-94410892D02*
X136408390Y-94363273D01*
X136408390Y-94363273D02*
X136456009Y-94315654D01*
X136456009Y-94315654D02*
X136503628Y-94220416D01*
X136503628Y-94220416D02*
X136503628Y-93839464D01*
X136979819Y-95363273D02*
X136979819Y-94791845D01*
X136979819Y-95077559D02*
X135979819Y-95077559D01*
X135979819Y-95077559D02*
X136122676Y-94982321D01*
X136122676Y-94982321D02*
X136217914Y-94887083D01*
X136217914Y-94887083D02*
X136265533Y-94791845D01*
X135979819Y-95982321D02*
X135979819Y-96077559D01*
X135979819Y-96077559D02*
X136027438Y-96172797D01*
X136027438Y-96172797D02*
X136075057Y-96220416D01*
X136075057Y-96220416D02*
X136170295Y-96268035D01*
X136170295Y-96268035D02*
X136360771Y-96315654D01*
X136360771Y-96315654D02*
X136598866Y-96315654D01*
X136598866Y-96315654D02*
X136789342Y-96268035D01*
X136789342Y-96268035D02*
X136884580Y-96220416D01*
X136884580Y-96220416D02*
X136932200Y-96172797D01*
X136932200Y-96172797D02*
X136979819Y-96077559D01*
X136979819Y-96077559D02*
X136979819Y-95982321D01*
X136979819Y-95982321D02*
X136932200Y-95887083D01*
X136932200Y-95887083D02*
X136884580Y-95839464D01*
X136884580Y-95839464D02*
X136789342Y-95791845D01*
X136789342Y-95791845D02*
X136598866Y-95744226D01*
X136598866Y-95744226D02*
X136360771Y-95744226D01*
X136360771Y-95744226D02*
X136170295Y-95791845D01*
X136170295Y-95791845D02*
X136075057Y-95839464D01*
X136075057Y-95839464D02*
X136027438Y-95887083D01*
X136027438Y-95887083D02*
X135979819Y-95982321D01*
X182154819Y-97943333D02*
X181678628Y-97610000D01*
X182154819Y-97371905D02*
X181154819Y-97371905D01*
X181154819Y-97371905D02*
X181154819Y-97752857D01*
X181154819Y-97752857D02*
X181202438Y-97848095D01*
X181202438Y-97848095D02*
X181250057Y-97895714D01*
X181250057Y-97895714D02*
X181345295Y-97943333D01*
X181345295Y-97943333D02*
X181488152Y-97943333D01*
X181488152Y-97943333D02*
X181583390Y-97895714D01*
X181583390Y-97895714D02*
X181631009Y-97848095D01*
X181631009Y-97848095D02*
X181678628Y-97752857D01*
X181678628Y-97752857D02*
X181678628Y-97371905D01*
X181154819Y-98848095D02*
X181154819Y-98371905D01*
X181154819Y-98371905D02*
X181631009Y-98324286D01*
X181631009Y-98324286D02*
X181583390Y-98371905D01*
X181583390Y-98371905D02*
X181535771Y-98467143D01*
X181535771Y-98467143D02*
X181535771Y-98705238D01*
X181535771Y-98705238D02*
X181583390Y-98800476D01*
X181583390Y-98800476D02*
X181631009Y-98848095D01*
X181631009Y-98848095D02*
X181726247Y-98895714D01*
X181726247Y-98895714D02*
X181964342Y-98895714D01*
X181964342Y-98895714D02*
X182059580Y-98848095D01*
X182059580Y-98848095D02*
X182107200Y-98800476D01*
X182107200Y-98800476D02*
X182154819Y-98705238D01*
X182154819Y-98705238D02*
X182154819Y-98467143D01*
X182154819Y-98467143D02*
X182107200Y-98371905D01*
X182107200Y-98371905D02*
X182059580Y-98324286D01*
X141379819Y-94210892D02*
X140903628Y-93877559D01*
X141379819Y-93639464D02*
X140379819Y-93639464D01*
X140379819Y-93639464D02*
X140379819Y-94020416D01*
X140379819Y-94020416D02*
X140427438Y-94115654D01*
X140427438Y-94115654D02*
X140475057Y-94163273D01*
X140475057Y-94163273D02*
X140570295Y-94210892D01*
X140570295Y-94210892D02*
X140713152Y-94210892D01*
X140713152Y-94210892D02*
X140808390Y-94163273D01*
X140808390Y-94163273D02*
X140856009Y-94115654D01*
X140856009Y-94115654D02*
X140903628Y-94020416D01*
X140903628Y-94020416D02*
X140903628Y-93639464D01*
X141379819Y-95163273D02*
X141379819Y-94591845D01*
X141379819Y-94877559D02*
X140379819Y-94877559D01*
X140379819Y-94877559D02*
X140522676Y-94782321D01*
X140522676Y-94782321D02*
X140617914Y-94687083D01*
X140617914Y-94687083D02*
X140665533Y-94591845D01*
X140379819Y-96068035D02*
X140379819Y-95591845D01*
X140379819Y-95591845D02*
X140856009Y-95544226D01*
X140856009Y-95544226D02*
X140808390Y-95591845D01*
X140808390Y-95591845D02*
X140760771Y-95687083D01*
X140760771Y-95687083D02*
X140760771Y-95925178D01*
X140760771Y-95925178D02*
X140808390Y-96020416D01*
X140808390Y-96020416D02*
X140856009Y-96068035D01*
X140856009Y-96068035D02*
X140951247Y-96115654D01*
X140951247Y-96115654D02*
X141189342Y-96115654D01*
X141189342Y-96115654D02*
X141284580Y-96068035D01*
X141284580Y-96068035D02*
X141332200Y-96020416D01*
X141332200Y-96020416D02*
X141379819Y-95925178D01*
X141379819Y-95925178D02*
X141379819Y-95687083D01*
X141379819Y-95687083D02*
X141332200Y-95591845D01*
X141332200Y-95591845D02*
X141284580Y-95544226D01*
X149642857Y-80508569D02*
X149976190Y-80032378D01*
X150214285Y-80508569D02*
X150214285Y-79508569D01*
X150214285Y-79508569D02*
X149833333Y-79508569D01*
X149833333Y-79508569D02*
X149738095Y-79556188D01*
X149738095Y-79556188D02*
X149690476Y-79603807D01*
X149690476Y-79603807D02*
X149642857Y-79699045D01*
X149642857Y-79699045D02*
X149642857Y-79841902D01*
X149642857Y-79841902D02*
X149690476Y-79937140D01*
X149690476Y-79937140D02*
X149738095Y-79984759D01*
X149738095Y-79984759D02*
X149833333Y-80032378D01*
X149833333Y-80032378D02*
X150214285Y-80032378D01*
X148690476Y-80508569D02*
X149261904Y-80508569D01*
X148976190Y-80508569D02*
X148976190Y-79508569D01*
X148976190Y-79508569D02*
X149071428Y-79651426D01*
X149071428Y-79651426D02*
X149166666Y-79746664D01*
X149166666Y-79746664D02*
X149261904Y-79794283D01*
X148214285Y-80508569D02*
X148023809Y-80508569D01*
X148023809Y-80508569D02*
X147928571Y-80460950D01*
X147928571Y-80460950D02*
X147880952Y-80413330D01*
X147880952Y-80413330D02*
X147785714Y-80270473D01*
X147785714Y-80270473D02*
X147738095Y-80079997D01*
X147738095Y-80079997D02*
X147738095Y-79699045D01*
X147738095Y-79699045D02*
X147785714Y-79603807D01*
X147785714Y-79603807D02*
X147833333Y-79556188D01*
X147833333Y-79556188D02*
X147928571Y-79508569D01*
X147928571Y-79508569D02*
X148119047Y-79508569D01*
X148119047Y-79508569D02*
X148214285Y-79556188D01*
X148214285Y-79556188D02*
X148261904Y-79603807D01*
X148261904Y-79603807D02*
X148309523Y-79699045D01*
X148309523Y-79699045D02*
X148309523Y-79937140D01*
X148309523Y-79937140D02*
X148261904Y-80032378D01*
X148261904Y-80032378D02*
X148214285Y-80079997D01*
X148214285Y-80079997D02*
X148119047Y-80127616D01*
X148119047Y-80127616D02*
X147928571Y-80127616D01*
X147928571Y-80127616D02*
X147833333Y-80079997D01*
X147833333Y-80079997D02*
X147785714Y-80032378D01*
X147785714Y-80032378D02*
X147738095Y-79937140D01*
X186054819Y-93023333D02*
X185578628Y-92690000D01*
X186054819Y-92451905D02*
X185054819Y-92451905D01*
X185054819Y-92451905D02*
X185054819Y-92832857D01*
X185054819Y-92832857D02*
X185102438Y-92928095D01*
X185102438Y-92928095D02*
X185150057Y-92975714D01*
X185150057Y-92975714D02*
X185245295Y-93023333D01*
X185245295Y-93023333D02*
X185388152Y-93023333D01*
X185388152Y-93023333D02*
X185483390Y-92975714D01*
X185483390Y-92975714D02*
X185531009Y-92928095D01*
X185531009Y-92928095D02*
X185578628Y-92832857D01*
X185578628Y-92832857D02*
X185578628Y-92451905D01*
X185054819Y-93356667D02*
X185054819Y-93975714D01*
X185054819Y-93975714D02*
X185435771Y-93642381D01*
X185435771Y-93642381D02*
X185435771Y-93785238D01*
X185435771Y-93785238D02*
X185483390Y-93880476D01*
X185483390Y-93880476D02*
X185531009Y-93928095D01*
X185531009Y-93928095D02*
X185626247Y-93975714D01*
X185626247Y-93975714D02*
X185864342Y-93975714D01*
X185864342Y-93975714D02*
X185959580Y-93928095D01*
X185959580Y-93928095D02*
X186007200Y-93880476D01*
X186007200Y-93880476D02*
X186054819Y-93785238D01*
X186054819Y-93785238D02*
X186054819Y-93499524D01*
X186054819Y-93499524D02*
X186007200Y-93404286D01*
X186007200Y-93404286D02*
X185959580Y-93356667D01*
X162591666Y-86459580D02*
X162639285Y-86507200D01*
X162639285Y-86507200D02*
X162782142Y-86554819D01*
X162782142Y-86554819D02*
X162877380Y-86554819D01*
X162877380Y-86554819D02*
X163020237Y-86507200D01*
X163020237Y-86507200D02*
X163115475Y-86411961D01*
X163115475Y-86411961D02*
X163163094Y-86316723D01*
X163163094Y-86316723D02*
X163210713Y-86126247D01*
X163210713Y-86126247D02*
X163210713Y-85983390D01*
X163210713Y-85983390D02*
X163163094Y-85792914D01*
X163163094Y-85792914D02*
X163115475Y-85697676D01*
X163115475Y-85697676D02*
X163020237Y-85602438D01*
X163020237Y-85602438D02*
X162877380Y-85554819D01*
X162877380Y-85554819D02*
X162782142Y-85554819D01*
X162782142Y-85554819D02*
X162639285Y-85602438D01*
X162639285Y-85602438D02*
X162591666Y-85650057D01*
X161639285Y-86554819D02*
X162210713Y-86554819D01*
X161924999Y-86554819D02*
X161924999Y-85554819D01*
X161924999Y-85554819D02*
X162020237Y-85697676D01*
X162020237Y-85697676D02*
X162115475Y-85792914D01*
X162115475Y-85792914D02*
X162210713Y-85840533D01*
D12*
%TO.C,IC2*%
X144605000Y-74225000D02*
X144605000Y-71025000D01*
D13*
X145060000Y-68425000D02*
X145060000Y-68425000D01*
X145060000Y-68325000D02*
X145060000Y-68325000D01*
D12*
X154505000Y-74225000D02*
X154505000Y-71025000D01*
D13*
X145060000Y-68325000D02*
G75*
G02*
X145060000Y-68425000I0J-50000D01*
G01*
X145060000Y-68425000D02*
G75*
G02*
X145060000Y-68325000I0J50000D01*
G01*
D12*
%TO.C,IC1*%
X129945000Y-74175000D02*
X129945000Y-70975000D01*
D13*
X130400000Y-68375000D02*
X130400000Y-68375000D01*
X130400000Y-68275000D02*
X130400000Y-68275000D01*
D12*
X139845000Y-74175000D02*
X139845000Y-70975000D01*
D13*
X130400000Y-68275000D02*
G75*
G02*
X130400000Y-68375000I0J-50000D01*
G01*
X130400000Y-68375000D02*
G75*
G02*
X130400000Y-68275000I0J50000D01*
G01*
D14*
%TO.C,R6*%
X130015000Y-82826686D02*
X130015000Y-84280814D01*
X131835000Y-82826686D02*
X131835000Y-84280814D01*
%TO.C,R8*%
X129252500Y-98026686D02*
X129252500Y-99480814D01*
X131072500Y-98026686D02*
X131072500Y-99480814D01*
%TO.C,R16*%
X142752500Y-99480814D02*
X142752500Y-98026686D01*
X144572500Y-99480814D02*
X144572500Y-98026686D01*
%TO.C,C6*%
X151690000Y-95288748D02*
X151690000Y-96711252D01*
X153510000Y-95288748D02*
X153510000Y-96711252D01*
%TO.C,R4*%
X185372936Y-94690000D02*
X186827064Y-94690000D01*
X185372936Y-96510000D02*
X186827064Y-96510000D01*
%TO.C,R9*%
X132352500Y-98026686D02*
X132352500Y-99480814D01*
X134172500Y-98026686D02*
X134172500Y-99480814D01*
%TO.C,R17*%
X148315000Y-99480814D02*
X148315000Y-98026686D01*
X150135000Y-99480814D02*
X150135000Y-98026686D01*
%TO.C,R14*%
X145552500Y-99480814D02*
X145552500Y-98026686D01*
X147372500Y-99480814D02*
X147372500Y-98026686D01*
%TO.C,R11*%
X137515000Y-81326686D02*
X137515000Y-82780814D01*
X139335000Y-81326686D02*
X139335000Y-82780814D01*
%TO.C,C3*%
X153590000Y-102911252D02*
X153590000Y-101488748D01*
X155410000Y-102911252D02*
X155410000Y-101488748D01*
%TO.C,R7*%
X132615000Y-82726686D02*
X132615000Y-84180814D01*
X134435000Y-82726686D02*
X134435000Y-84180814D01*
%TO.C,R10*%
X135352500Y-98026686D02*
X135352500Y-99480814D01*
X137172500Y-98026686D02*
X137172500Y-99480814D01*
%TO.C,R5*%
X184072936Y-97190000D02*
X185527064Y-97190000D01*
X184072936Y-99010000D02*
X185527064Y-99010000D01*
%TO.C,R15*%
X140015000Y-99480814D02*
X140015000Y-98026686D01*
X141835000Y-99480814D02*
X141835000Y-98026686D01*
%TO.C,R19*%
X148090000Y-83880814D02*
X148090000Y-82426686D01*
X149910000Y-83880814D02*
X149910000Y-82426686D01*
%TO.C,R3*%
X187972936Y-92290000D02*
X189427064Y-92290000D01*
X187972936Y-94110000D02*
X189427064Y-94110000D01*
%TO.C,C1*%
X161713748Y-87090000D02*
X163136252Y-87090000D01*
X161713748Y-88910000D02*
X163136252Y-88910000D01*
%TD*%
M02*
