%TF.GenerationSoftware,KiCad,Pcbnew,9.0.3*%
%TF.CreationDate,2026-03-04T21:44:27+01:00*%
%TF.ProjectId,LSE2_BruLimon,4c534532-5f42-4727-954c-696d6f6e2e6b,rev?*%
%TF.SameCoordinates,Original*%
%TF.FileFunction,Soldermask,Top*%
%TF.FilePolarity,Negative*%
%FSLAX46Y46*%
G04 Gerber Fmt 4.6, Leading zero omitted, Abs format (unit mm)*
G04 Created by KiCad (PCBNEW 9.0.3) date 2026-03-04 21:44:27*
%MOMM*%
%LPD*%
G01*
G04 APERTURE LIST*
G04 Aperture macros list*
%AMRoundRect*
0 Rectangle with rounded corners*
0 $1 Rounding radius*
0 $2 $3 $4 $5 $6 $7 $8 $9 X,Y pos of 4 corners*
0 Add a 4 corners polygon primitive as box body*
4,1,4,$2,$3,$4,$5,$6,$7,$8,$9,$2,$3,0*
0 Add four circle primitives for the rounded corners*
1,1,$1+$1,$2,$3*
1,1,$1+$1,$4,$5*
1,1,$1+$1,$6,$7*
1,1,$1+$1,$8,$9*
0 Add four rect primitives between the rounded corners*
20,1,$1+$1,$2,$3,$4,$5,0*
20,1,$1+$1,$4,$5,$6,$7,0*
20,1,$1+$1,$6,$7,$8,$9,0*
20,1,$1+$1,$8,$9,$2,$3,0*%
G04 Aperture macros list end*
%ADD10R,1.500000X1.500000*%
%ADD11C,1.500000*%
%ADD12RoundRect,0.250000X0.650000X-0.325000X0.650000X0.325000X-0.650000X0.325000X-0.650000X-0.325000X0*%
%ADD13RoundRect,0.250000X-0.625000X0.312500X-0.625000X-0.312500X0.625000X-0.312500X0.625000X0.312500X0*%
%ADD14R,1.800000X1.800000*%
%ADD15C,1.800000*%
%ADD16R,1.700000X1.700000*%
%ADD17C,1.700000*%
%ADD18RoundRect,0.250000X0.450000X0.250000X-0.450000X0.250000X-0.450000X-0.250000X0.450000X-0.250000X0*%
%ADD19RoundRect,0.250000X0.625000X-0.312500X0.625000X0.312500X-0.625000X0.312500X-0.625000X-0.312500X0*%
%ADD20RoundRect,0.250000X-0.325000X-0.650000X0.325000X-0.650000X0.325000X0.650000X-0.325000X0.650000X0*%
%ADD21RoundRect,0.250000X-0.312500X-0.625000X0.312500X-0.625000X0.312500X0.625000X-0.312500X0.625000X0*%
%ADD22RoundRect,0.250000X-0.650000X0.325000X-0.650000X-0.325000X0.650000X-0.325000X0.650000X0.325000X0*%
%ADD23R,1.070000X1.800000*%
%ADD24O,1.070000X1.800000*%
G04 APERTURE END LIST*
D10*
%TO.C,DS1*%
X131050000Y-103190000D03*
D11*
X133590000Y-103190000D03*
X136130000Y-103190000D03*
X138670000Y-103190000D03*
X141210000Y-103190000D03*
X143750000Y-103190000D03*
X146290000Y-103190000D03*
X148830000Y-103190000D03*
X151370000Y-103190000D03*
X151370000Y-87950000D03*
X148830000Y-87950000D03*
X146290000Y-87950000D03*
X143750000Y-87950000D03*
X141210000Y-87950000D03*
X138670000Y-87950000D03*
X136130000Y-87950000D03*
X133590000Y-87950000D03*
X131050000Y-87950000D03*
%TD*%
D12*
%TO.C,C4*%
X142400000Y-73075000D03*
X142400000Y-70125000D03*
%TD*%
D13*
%TO.C,R12*%
X135600000Y-80891250D03*
X135600000Y-83816250D03*
%TD*%
D14*
%TO.C,D1*%
X186430000Y-61400000D03*
D15*
X188970000Y-61400000D03*
%TD*%
D16*
%TO.C,J4*%
X157640000Y-60200000D03*
D17*
X157640000Y-57660000D03*
X160180000Y-60200000D03*
X160180000Y-57660000D03*
X162720000Y-60200000D03*
X162720000Y-57660000D03*
X165260000Y-60200000D03*
X165260000Y-57660000D03*
X167800000Y-60200000D03*
X167800000Y-57660000D03*
X170340000Y-60200000D03*
X170340000Y-57660000D03*
X172880000Y-60200000D03*
X172880000Y-57660000D03*
X175420000Y-60200000D03*
X175420000Y-57660000D03*
X177960000Y-60200000D03*
X177960000Y-57660000D03*
X180500000Y-60200000D03*
X180500000Y-57660000D03*
%TD*%
D18*
%TO.C,Q1*%
X157540000Y-95350000D03*
X157540000Y-93450000D03*
X155340000Y-94400000D03*
%TD*%
D16*
%TO.C,J9*%
X188160000Y-78680000D03*
D17*
X190700000Y-78680000D03*
X188160000Y-81220000D03*
X190700000Y-81220000D03*
X188160000Y-83760000D03*
X190700000Y-83760000D03*
X188160000Y-86300000D03*
X190700000Y-86300000D03*
X188160000Y-88840000D03*
X190700000Y-88840000D03*
%TD*%
D16*
%TO.C,J3*%
X157620000Y-103440000D03*
D17*
X157620000Y-100900000D03*
X160160000Y-103440000D03*
X160160000Y-100900000D03*
X162700000Y-103440000D03*
X162700000Y-100900000D03*
X165240000Y-103440000D03*
X165240000Y-100900000D03*
X167780000Y-103440000D03*
X167780000Y-100900000D03*
X170320000Y-103440000D03*
X170320000Y-100900000D03*
X172860000Y-103440000D03*
X172860000Y-100900000D03*
X175400000Y-103440000D03*
X175400000Y-100900000D03*
X177940000Y-103440000D03*
X177940000Y-100900000D03*
X180480000Y-103440000D03*
X180480000Y-100900000D03*
%TD*%
D19*
%TO.C,R18*%
X151700000Y-84516250D03*
X151700000Y-81591250D03*
%TD*%
D20*
%TO.C,C5*%
X130450000Y-72653750D03*
X133400000Y-72653750D03*
%TD*%
D13*
%TO.C,R20*%
X160000000Y-95175000D03*
X160000000Y-98100000D03*
%TD*%
D21*
%TO.C,R1*%
X186367500Y-57800000D03*
X189292500Y-57800000D03*
%TD*%
D16*
%TO.C,U1*%
X172640000Y-75800000D03*
D17*
X170100000Y-75800000D03*
X172640000Y-73260000D03*
X170100000Y-73260000D03*
X172640000Y-70720000D03*
X170100000Y-70720000D03*
X172640000Y-68180000D03*
X170100000Y-68180000D03*
%TD*%
D22*
%TO.C,C2*%
X138825000Y-67778750D03*
X138825000Y-70728750D03*
%TD*%
D16*
%TO.C,J8*%
X161200000Y-91000000D03*
D17*
X163740000Y-91000000D03*
X166280000Y-91000000D03*
X168820000Y-91000000D03*
X171360000Y-91000000D03*
X173900000Y-91000000D03*
X176440000Y-91000000D03*
X178980000Y-91000000D03*
%TD*%
D16*
%TO.C,J7*%
X166225000Y-94625000D03*
D17*
X168765000Y-94625000D03*
X166225000Y-97165000D03*
X168765000Y-97165000D03*
%TD*%
D16*
%TO.C,J5*%
X180660000Y-68200000D03*
D17*
X183200000Y-68200000D03*
X180660000Y-70740000D03*
X183200000Y-70740000D03*
X180660000Y-73280000D03*
X183200000Y-73280000D03*
X180660000Y-75820000D03*
X183200000Y-75820000D03*
%TD*%
D16*
%TO.C,J6*%
X132400000Y-59925000D03*
D17*
X132400000Y-62465000D03*
%TD*%
D19*
%TO.C,R13*%
X146300000Y-84416250D03*
X146300000Y-81491250D03*
%TD*%
D21*
%TO.C,R2*%
X155507500Y-81800000D03*
X158432500Y-81800000D03*
%TD*%
D14*
%TO.C,D2*%
X155630000Y-85400000D03*
D15*
X158170000Y-85400000D03*
%TD*%
D23*
%TO.C,D3*%
X190205000Y-101400000D03*
D24*
X188935000Y-101400000D03*
X187665000Y-101400000D03*
X186395000Y-101400000D03*
%TD*%
M02*
