M48
; DRILL file {KiCad 9.0.3} date 2026-03-04T21:44:32+0100
; FORMAT={-:-/ absolute / metric / decimal}
; #@! TF.CreationDate,2026-03-04T21:44:32+01:00
; #@! TF.GenerationSoftware,Kicad,Pcbnew,9.0.3
; #@! TF.FileFunction,Plated,1,2,PTH
FMAT,2
METRIC
; #@! TA.AperFunction,Plated,PTH,ViaDrill
T1C0.300
; #@! TA.AperFunction,Plated,PTH,ComponentDrill
T2C0.900
; #@! TA.AperFunction,Plated,PTH,ComponentDrill
T3C1.000
; #@! TA.AperFunction,Plated,PTH,ViaDrill
T4C3.200
%
G90
G05
T1
X130.395Y-69.754
X130.395Y-75.404
X131.715Y-69.754
X133.4Y-72.654
X134.255Y-69.754
X136.262Y-97.291
X136.8Y-69.75
X137.125Y-79.254
X138.825Y-70.729
X139.385Y-75.404
X140.925Y-97.291
X141.4Y-56.2
X141.7Y-57.9
X142.4Y-70.125
X143.1Y-56.4
X143.662Y-97.291
X145.05Y-75.229
X145.07Y-69.804
X146.3Y-81.491
X146.39Y-69.804
X148.93Y-69.804
X148.93Y-75.454
X150.1Y-85.954
X150.2Y-77.654
X151.47Y-77.854
X152.74Y-75.454
X155.34Y-94.4
X158.433Y-81.8
X169.5Y-63.3
X174.1Y-63.6
X174.9Y-94.6
X176.8Y-66.0
X177.2Y-96.9
X185.6Y-91.3
X189.292Y-57.8
T2
X155.63Y-85.4
X158.17Y-85.4
X186.395Y-101.4
X186.43Y-61.4
X187.665Y-101.4
X188.935Y-101.4
X188.97Y-61.4
X190.205Y-101.4
T3
X131.05Y-87.95
X131.05Y-103.19
X132.4Y-59.925
X132.4Y-62.465
X133.59Y-87.95
X133.59Y-103.19
X136.13Y-87.95
X136.13Y-103.19
X138.67Y-87.95
X138.67Y-103.19
X141.21Y-87.95
X141.21Y-103.19
X143.75Y-87.95
X143.75Y-103.19
X146.29Y-87.95
X146.29Y-103.19
X148.83Y-87.95
X148.83Y-103.19
X151.37Y-87.95
X151.37Y-103.19
X157.62Y-100.9
X157.62Y-103.44
X157.64Y-57.66
X157.64Y-60.2
X160.16Y-100.9
X160.16Y-103.44
X160.18Y-57.66
X160.18Y-60.2
X161.2Y-91.0
X162.7Y-100.9
X162.7Y-103.44
X162.72Y-57.66
X162.72Y-60.2
X163.74Y-91.0
X165.24Y-100.9
X165.24Y-103.44
X165.26Y-57.66
X165.26Y-60.2
X166.225Y-94.625
X166.225Y-97.165
X166.28Y-91.0
X167.78Y-100.9
X167.78Y-103.44
X167.8Y-57.66
X167.8Y-60.2
X168.765Y-94.625
X168.765Y-97.165
X168.82Y-91.0
X170.1Y-68.18
X170.1Y-70.72
X170.1Y-73.26
X170.1Y-75.8
X170.32Y-100.9
X170.32Y-103.44
X170.34Y-57.66
X170.34Y-60.2
X171.36Y-91.0
X172.64Y-68.18
X172.64Y-70.72
X172.64Y-73.26
X172.64Y-75.8
X172.86Y-100.9
X172.86Y-103.44
X172.88Y-57.66
X172.88Y-60.2
X173.9Y-91.0
X175.4Y-100.9
X175.4Y-103.44
X175.42Y-57.66
X175.42Y-60.2
X176.44Y-91.0
X177.94Y-100.9
X177.94Y-103.44
X177.96Y-57.66
X177.96Y-60.2
X178.98Y-91.0
X180.48Y-100.9
X180.48Y-103.44
X180.5Y-57.66
X180.5Y-60.2
X180.66Y-68.2
X180.66Y-70.74
X180.66Y-73.28
X180.66Y-75.82
X183.2Y-68.2
X183.2Y-70.74
X183.2Y-73.28
X183.2Y-75.82
X188.16Y-78.68
X188.16Y-81.22
X188.16Y-83.76
X188.16Y-86.3
X188.16Y-88.84
X190.7Y-78.68
X190.7Y-81.22
X190.7Y-83.76
X190.7Y-86.3
X190.7Y-88.84
T4
X162.5Y-81.2
X177.7Y-81.2
M30
